JOIN US WITH FACEBOOK 


PLEASE BE PASSION BECAUSE MY UPLOAD SPEED IS SLO (150KBPS)
==========================================================


-::Vertical Limit (2000) 720P BRRIP AUD-HINDI DD-5.1 (ORIGINAL BY GPSOFT)::-



General
Unique ID                                : 197033566747520631151430974608986847982 (0x943B48DD2C89FAFEABBCD3BA943BBAEE)
Complete name                            : G:\MUXING\Vertical Limit (2000) 720P BRRIP AUD-HINDI DD-5.1 (ORIGINAL BY GPSOFT)\Vertical Limit (2000) 720P BRRIP AUD-HINDI DD-5.1 (ORIGINAL BY GPSOFT).mkv
Format                                   : Matroska
Format version                           : Version 2
File size                                : 2.19 GiB
Duration                                 : 1h 59mn
Overall bit rate                         : 2 632 Kbps
Movie name                               : Vertical Limit (2000) 720P BRRIP AUD-HINDI DD-5.1 (ORIGINAL BY GPSOFT)
Encoded date                             : UTC 2012-01-11 21:32:20
Writing application                      : mkvmerge v5.1.0 ('And so it goes') built on Nov 28 2011 23:58:28
Writing library                          : libebml v1.2.3 + libmatroska v1.3.0

Video
ID                                       : 1
Format                                   : AVC
Format/Info                              : Advanced Video Codec
Format profile                           : Main@L3.1
Format settings, CABAC                   : Yes
Format settings, ReFrames                : 1 frame
Muxing mode                              : Header stripping
Codec ID                                 : V_MPEG4/ISO/AVC
Duration                                 : (1h 59mn 23se)
Bit rate                                 : 2 119 Kbps
Width                                    : 1 280 pixels
Height                                   : 688 pixels
Display aspect ratio                     : 1.860
Frame rate                               : 25.000 fps
Original frame rate                      : 23.976 fps
Color space                              : YUV
Chroma subsampling                       : 4:2:0
Bit depth                                : 8 bits
Scan type                                : Progressive
Bits/(Pixel*Frame)                       : 0.096
Stream size                              : 1.78 GiB (81%)
Title                                    : Vertical Limit (2000) 720P BRRIP AUD-HINDI DD-5.1 (ORIGINAL BY GPSOFT)
Writing library                          : x264 core 67 r1165M 6841c5e
Encoding settings                        : cabac=1 / ref=1 / deblock=1:0:0 / analyse=0x1:0x111 / me=hex / subme=6 / psy_rd=1.0:0.0 / mixed_ref=0 / me_range=16 / chroma_me=1 / trellis=0 / 8x8dct=0 / cqm=0 / deadzone=21,11 / chroma_qp_offset=-2 / threads=3 / nr=0 / decimate=1 / mbaff=0 / bframes=0 / keyint=250 / keyint_min=25 / scenecut=40 / rc=abr / bitrate=2119 / ratetol=1.0 / qcomp=0.60 / qpmin=10 / qpmax=51 / qpstep=4 / ip_ratio=1.40 / aq=1:1.00
Language                                 : English
Default                                  : Yes
Forced                                   : No

Audio
ID                                       : 2
Format                                   : AC-3
Format/Info                              : Audio Coding 3
Mode extension                           : CM (complete main)
Muxing mode                              : Header stripping
Codec ID                                 : A_AC3
Duration                                 : (1h 59mn 23se)
Bit rate mode                            : Constant
Bit rate                                 : 448 Kbps
Channel(s)                               : 6 channels
Channel positions                        : Front: L C R, Side: L R, LFE
Sampling rate                            : 48.0 KHz
Bit depth                                : 16 bits
Compression mode                         : Lossy
Delay relative to video                  : 2s 500ms
Stream size                              : 383 MiB (17%)
Title                                    : HINDI DD-5.1 (ORIGINAL BY GPSOFT)
Language                                 : Hindi
Default                                  : Yes
Forced                                   : No




***********************************************************************************
CLICK FOR SAMPLE CLIP

SAMPLE CLIP 25.71-MB :-


***********************************************************************************


PLEASE SAY THANKS IF U LIKE THIS POST TO ALIVE TORRENT

AND SEED 24HR AFTER 100% DOWNLOAD PLEASE
